# xmcd
#
# Track frame offsets:
#	150
#	11782
#	32970
#	50122
#	68470
#	84010
#	101137
#	118747
#
# Disc length: 1840 seconds
#
# Revision: 1
# Processed by: cddbd v1.5.1PL0 Copyright (c) Steve Scherf et al.
# Submitted via: CDex 1.50Beta5
#
DISCID=64072e08
DTITLE=Bakery - 純粋な愛のうた
DYEAR=2002
DGENRE=Pop
TTITLE0=純粋な愛のうた
TTITLE1=クラリティー
TTITLE2=アネモネ
TTITLE3=平凡
TTITLE4=ビデオ
TTITLE5=天球の回転について
TTITLE6=少し、休もう
TTITLE7=百万年
EXTD=
EXTT0=
EXTT1=
EXTT2=
EXTT3=
EXTT4=
EXTT5=
EXTT6=
EXTT7=
PLAYORDER=
